<?xml version="1.0" encoding="UTF-8"?>
<svg width="720px" height="1024px" viewBox="0 0 720 1024" version="1.1" xmlns="http://www.w3.org/2000/svg" xmlns:xlink="http://www.w3.org/1999/xlink">
    <!-- Generator: sketchtool 53.2 (72643) - https://sketchapp.com -->
    <title>17672CC7-65B0-4572-A3E4-39673D442A85</title>
    <desc>Created with sketchtool.</desc>
    <defs>
        <linearGradient x1="50%" y1="0%" x2="66.184435%" y2="102.855668%" id="linearGradient-1">
            <stop stop-color="#F4F4F4" offset="0%"></stop>
            <stop stop-color="#B0B0B0" offset="100%"></stop>
        </linearGradient>
        <rect id="path-2" x="0" y="0" width="720" height="1024"></rect>
        <linearGradient x1="50%" y1="16.1286644%" x2="82.7365164%" y2="85.8058412%" id="linearGradient-4">
            <stop stop-color="#F4F4F4" offset="0%"></stop>
            <stop stop-color="#B0B0B0" offset="100%"></stop>
        </linearGradient>
        <linearGradient x1="24.7224635%" y1="-29.2173694%" x2="76.4573225%" y2="102.855668%" id="linearGradient-5">
            <stop stop-color="#FAFAFA" offset="0%"></stop>
            <stop stop-color="#C5C5C5" offset="100%"></stop>
        </linearGradient>
        <linearGradient x1="18.7232717%" y1="-24.1216356%" x2="82.7365164%" y2="99.4556759%" id="linearGradient-6">
            <stop stop-color="#FAFAFA" offset="0%"></stop>
            <stop stop-color="#C5C5C5" offset="100%"></stop>
        </linearGradient>
    </defs>
    <g id="Sign-Up-&amp;-Login-Templates" stroke="none" stroke-width="1" fill="none" fill-rule="evenodd">
        <g id="14.0-Sign-up">
            <g id="other/bg-image-sl">
                <g>
                    <mask id="mask-3" fill="white">
                        <use xlink:href="#path-2"></use>
                    </mask>
                    <use id="Background" fill="url(#linearGradient-1)" opacity="0.45" xlink:href="#path-2"></use>
                    <path d="M962,350.428882 C902.908617,322.637683 793.059333,282.651738 697.438316,315.128229 C559.444955,361.994962 479.201695,412.994313 331.148713,379.480177 C169.334881,342.850344 -13.254863,525.211952 149.599225,710.716892 C356.930303,946.881288 552.23175,751.448946 629.622244,865.323225 C664.344449,916.41653 655.735344,986.954279 611.279947,1024 L962,1024 L962,350.428882 Z" id="Fill-1" fill="url(#linearGradient-4)" style="mix-blend-mode: multiply;" opacity="0.45" mask="url(#mask-3)"></path>
                    <path d="M682.687258,1125.43903 C664.159125,1100.59122 638.184118,1084.35516 611.249817,1073.66736 C511.807686,1034.22045 407.438592,1065.94795 307.827174,1086.60927 C204.604295,1108.01723 90.4941328,1108.38348 -4.64880819,1050.85108 C-59.8999226,1017.43805 -106.540313,959.705336 -119.122233,889.508242 C-137.428176,787.369164 -88.2943259,691.27207 -26.9400547,621.898516 C42.5117881,543.368906 122.325419,497.693852 214.833828,467.641758 C258.866138,453.338078 305.125632,430.272914 326.554572,383.871445 C355.278733,321.668953 320.333267,287.195648 283.583834,248.839367 C269.254377,233.880094 257.102729,212.379047 261.140934,190.639234 C270.531085,140.079602 337.080357,115.025398 369.710468,86.8915234 C419.070034,44.3345859 478.438707,-10.0473203 498.617391,-79 L1041.19702,-79 L1041.19702,1216 C1029.0489,1216 734.325148,1215.24728 706.67843,1215.24728 C705.59217,1181.7088 703.01054,1152.69878 682.687258,1125.43903 Z" id="Fill-1" fill-opacity="0.7" fill="url(#linearGradient-5)" style="mix-blend-mode: multiply;" opacity="0.5" mask="url(#mask-3)"></path>
                    
                    <path d="M-138.773594,364.613194 C-172.303295,395.840699 -185.807336,434.059752 -185.930452,471.802829 L-185.930452,472.80414 C-185.817889,510.208747 -172.61636,547.07744 -152.798239,576.150716 C-122.592664,634.092774 -74.1342964,727.182964 -9.4563056,789.426429 C53.311632,854.649147 132.295675,889.02514 179.551026,898.304895 C194.792758,904.527831 213.974195,908.321531 235.069203,908.335634 L235.315435,908.335634 C279.207966,908.303902 331.335183,891.909197 373.398566,847.012387 C438.628819,785.403556 481.76155,661.128171 511.907326,554.210018 C551.51191,448.550555 571.192846,304.047983 503.633946,244.191446 C474.378121,211.162286 424.301661,198.335634 367.07745,198.335634 C307.169316,198.335634 239.423984,212.396296 179.551026,232.059364 C62.4292342,261.122063 -78.2182224,298.882769 -138.773594,364.613194 Z" id="Fill-1-Copy" fill-opacity="0.7" fill="url(#linearGradient-6)" style="mix-blend-mode: multiply;" opacity="0.2" mask="url(#mask-3)" transform="translate(181.069548, 553.335634) rotate(170.000000) translate(-181.069548, -553.335634) "></path>
                </g>
            </g>
        </g>
    </g>
</svg>